<?xml version="1.0" encoding="utf-8"?>
<!-- Generator: Adobe Illustrator 25.2.1, SVG Export Plug-In . SVG Version: 6.00 Build 0)  -->
<svg version="1.1" xmlns="http://www.w3.org/2000/svg" xmlns:xlink="http://www.w3.org/1999/xlink" x="0px" y="0px"
	 viewBox="0 0 1920 1080" style="enable-background:new 0 0 1920 1080;" xml:space="preserve">
<style type="text/css">
	.st0{fill:none;stroke:#000000;stroke-miterlimit:10;}
	.st1{clip-path:url(#SVGID_2_);}
	.st2{clip-path:url(#SVGID_2_);fill:#FFFFFF;}
</style>
<g id="Layer_2">
	<circle class="st0" cx="1663.45" cy="822.71" r="115.28"/>
	<polygon class="st0" points="1574.95,895.42 1683.2,935.51 1770.96,862.43 1751.58,750.25 1644.56,710.06 1556.25,782.65 	"/>
	<circle class="st0" cx="1663.91" cy="823.7" r="87.5"/>
	<polygon class="st0" points="1638.34,828.42 1630.41,780.6 1675.32,797.72 1720.22,814.84 1683.25,845.54 1646.27,876.24 	"/>
	<polygon class="st0" points="1606.53,832.2 1590.21,733.8 1683.6,768.87 1776.98,803.94 1699.92,867.27 1622.85,930.61 	"/>
	<polygon class="st0" points="1720.9,815.87 1735.23,912.23 1643.15,876.68 1551.07,841.14 1628.82,780.33 1707.36,716.65 	"/>
	<circle class="st0" cx="1663.75" cy="822.71" r="66.5"/>
	<line class="st0" x1="1751.93" y1="749.3" x2="1575.14" y2="896.54"/>
	<line class="st0" x1="1771.15" y1="862.17" x2="1555.03" y2="781.45"/>
	<polygon class="st0" points="1607.52,832.04 1644.86,800.51 1682.21,768.97 1690.39,818.3 1698.57,867.62 1653.04,849.83 	"/>
	<polygon class="st0" points="1608.51,803.37 1644.58,710.37 1707.09,788.11 1770.82,862.7 1671.02,881.11 1575.35,895.56 	"/>
	<polygon class="st0" points="1657.49,764.14 1751.56,749.64 1718.08,843.38 1683.11,935.04 1619.16,856.24 1556.19,781.85 	"/>
	<line class="st0" x1="1644.42" y1="709.29" x2="1683.35" y2="936.11"/>
</g>
<g id="Layer_3">
	<g>
		<defs>
			<rect id="SVGID_1_" x="2.94" y="1.22" width="1079.54" height="1085.93"/>
		</defs>
		<clipPath id="SVGID_2_">
			<use xlink:href="#SVGID_1_"  style="overflow:visible;"/>
		</clipPath>
		
			<rect x="187.19" y="-77.8" transform="matrix(0.7071 -0.7071 0.7071 0.7071 -40.8689 181.7397)" class="st1" width="23.51" height="436.02"/>
		
			<rect x="260.12" y="-134.19" transform="matrix(0.7071 -0.7071 0.7071 0.7071 24.5118 215.0729)" class="st1" width="23.51" height="424.28"/>
		
			<rect x="340.75" y="-56.93" transform="matrix(0.7071 -0.7071 0.7071 0.7071 39.7443 275.5635)" class="st1" width="23.51" height="293.47"/>
		
			<rect x="375.14" y="-91.32" transform="matrix(0.7071 -0.7071 0.7071 0.7071 74.1327 289.8077)" class="st1" width="23.51" height="293.47"/>
		<polygon class="st1" points="413.58,817.3 396.97,833.95 484.79,149.15 498.92,150.83 		"/>
		<polygon class="st1" points="380.43,850.69 363.75,867.14 450.17,184.17 464.5,185.13 		"/>
		<polygon class="st1" points="345.97,884.9 329.42,901.57 415.92,218.03 430.11,219.71 		"/>
		<polygon class="st1" points="311.56,919.32 295.01,935.99 381.5,252.44 396.99,252.85 		"/>
		<polygon class="st1" points="277.3,953.73 260.59,970.36 346.01,285.7 361.5,286.1 		"/>
		
			<rect x="528.7" y="769.61" transform="matrix(0.7071 -0.7071 0.7071 0.7071 -521.0787 663.5673)" class="st1" width="23.51" height="382.35"/>
		
			<rect x="495.5" y="802.81" transform="matrix(0.7071 -0.7071 0.7071 0.7071 -554.2813 649.8143)" class="st1" width="23.51" height="382.35"/>
		
			<rect x="461.11" y="837.2" transform="matrix(0.7071 -0.7071 0.7071 0.7071 -588.6697 635.5701)" class="st1" width="23.51" height="382.35"/>
		
			<rect x="426.72" y="871.58" transform="matrix(0.7071 -0.7071 0.7071 0.7071 -623.0581 621.326)" class="st1" width="23.51" height="382.35"/>
		
			<rect x="505.05" y="-199.92" transform="matrix(0.7071 -0.7071 0.7071 0.7071 -250.8402 532.3755)" class="st2" width="24.34" height="1537.79"/>
		
			<rect x="458.36" y="-182.01" transform="matrix(0.7071 -0.7071 0.7071 0.7071 -277.1765 504.6083)" class="st2" width="24.34" height="1537.79"/>
		
			<rect x="416.31" y="-158.83" transform="matrix(0.7071 -0.7071 0.7071 0.7071 -305.8855 481.665)" class="st2" width="24.34" height="1537.79"/>
		
			<rect x="341.8" y="-108.3" transform="matrix(0.7071 -0.7071 0.7071 0.7071 -363.4332 443.7793)" class="st2" width="24.34" height="1537.79"/>
		
			<rect x="376.02" y="-135.49" transform="matrix(0.7071 -0.7071 0.7071 0.7071 -334.1924 460.0121)" class="st2" width="24.34" height="1537.79"/>
		
			<rect x="392.33" y="905.97" transform="matrix(0.7071 -0.7071 0.7071 0.7071 -657.4465 607.0818)" class="st1" width="23.51" height="382.35"/>
		
			<rect x="226.91" y="-100.99" transform="matrix(0.7071 -0.7071 0.7071 0.7071 -8.6908 201.32)" class="st1" width="23.51" height="424.28"/>
		
			<rect x="389.66" y="-115.19" transform="matrix(0.7071 -0.7071 0.7071 0.7071 -315.9126 463.4016)" class="st1" width="23.51" height="1456.47"/>
		
			<rect x="354.09" y="-86.73" transform="matrix(0.7071 -0.7071 0.7071 0.7071 -346.4559 446.5824)" class="st1" width="23.51" height="1456.47"/>
		
			<rect x="316.14" y="-63.02" transform="matrix(0.7071 -0.7071 0.7071 0.7071 -374.3398 426.697)" class="st1" width="23.51" height="1456.47"/>
		
			<rect x="422.87" y="-143.65" transform="matrix(0.7071 -0.7071 0.7071 0.7071 -286.064 478.5439)" class="st1" width="23.51" height="1456.47"/>
		
			<rect x="469.89" y="-185.41" transform="matrix(0.7071 -0.7071 0.7071 0.7071 -260.4325 507.2211)" class="st1" width="24.32" height="1506.78"/>
		
			<rect x="521.16" y="-212.45" transform="matrix(0.7071 -0.7071 0.7071 0.7071 -235.9948 539.5717)" class="st1" width="24.32" height="1534.21"/>
	</g>
</g>
</svg>
