<?xml version="1.0" encoding="utf-8"?>
<!-- Generator: Adobe Illustrator 25.2.1, SVG Export Plug-In . SVG Version: 6.00 Build 0)  -->
<svg version="1.1" id="Layer_1" xmlns="http://www.w3.org/2000/svg" xmlns:xlink="http://www.w3.org/1999/xlink" x="0px" y="0px"
	 viewBox="0 0 612 792" style="enable-background:new 0 0 612 792;" xml:space="preserve">
<style type="text/css">
	.st0{fill:none;stroke:#000000;stroke-width:3;stroke-miterlimit:10;}
	.st1{fill:none;stroke:#000000;stroke-width:2.9;stroke-miterlimit:10;}
</style>
<path d="M206.29,171.06h11.43c0.33,0,0.6,0.27,0.6,0.6v1.78c0,0.33-0.27,0.6-0.6,0.6h-8.9c-1.4,0-2.54-1.14-2.54-2.54V171.06z"/>
<path d="M242.27,159.35v14.09c0,0.33-0.27,0.6-0.6,0.6h-1.77c-0.33,0-0.6-0.27-0.6-0.6v-14.09c0-0.33,0.27-0.6,0.6-0.6h1.77
	C242.01,158.75,242.27,159.02,242.27,159.35z"/>
<path d="M222.71,165.05l6.39-0.03v3.01h-6.98l-0.01-2.38C222.11,165.32,222.38,165.05,222.71,165.05z"/>
<path d="M222.71,158.7h6.73c0.83,0,1.51,0.67,1.51,1.51v1.48h-8.23c-0.33,0-0.6-0.27-0.6-0.6v-1.78
	C222.11,158.97,222.37,158.7,222.71,158.7z"/>
<polygon points="229.76,166.49 234.6,174.04 231.56,174.04 227.73,167.98 "/>
<path class="st0" d="M228.53,166.45"/>
<path class="st0" d="M228.65,160.21"/>
<path class="st0" d="M229.35,160.2c1.88,0,3.15,1.41,3.15,3.15c0,1.73-1.63,3.19-3.51,3.19"/>
<path d="M217.69,158.7h-10.78c-0.33,0-0.6,0.27-0.6,0.6v1.78c0,0.33,0.27,0.6,0.6,0.6h10.78c0.33,0,0.6-0.27,0.6-0.6v-1.78
	C218.29,158.97,218.02,158.7,217.69,158.7z"/>
<path d="M217.67,165.05h-10.78c-0.33,0-0.6,0.27-0.6,0.6v2.38h11.38c0.33,0,0.6-0.27,0.6-0.6v-1.78
	C218.27,165.32,218,165.05,217.67,165.05z"/>
<rect x="205.21" y="167" transform="matrix(-1.836970e-16 1 -1 -1.836970e-16 376.2784 -39.2883)" width="5.14" height="2.98"/>
<path d="M225.09,173.45v-7.8c0-0.33-0.27-0.6-0.6-0.6h-1.78c-0.33,0-0.6,0.27-0.6,0.6v7.8c0,0.33,0.27,0.6,0.6,0.6h1.78
	C224.82,174.05,225.09,173.79,225.09,173.45z"/>
<path d="M257.2,158.74h-4.36c-1.44,0-2.61,1.17-2.61,2.61v0.41h6.97c0.33,0,0.6-0.27,0.6-0.6v-1.82
	C257.8,159.01,257.53,158.74,257.2,158.74z"/>
<path d="M246.63,164.92"/>
<path d="M313.11,173.86l5.93-13.01c0.34-0.75,0.01-1.63-0.74-1.98v0c-0.75-0.34-1.63-0.01-1.98,0.74l-6.49,14.24L313.11,173.86z"/>
<path class="st0" d="M253,172.55c-3.35,0-6.11-2.76-6.11-6.11s2.72-6.24,6.19-6.19"/>
<path d="M252.75,174.05h4.5c0.33,0,0.6-0.27,0.6-0.6v-1.82c0-0.33-0.27-0.6-0.6-0.6h-6.97v0.55
	C250.28,172.95,251.39,174.05,252.75,174.05z"/>
<path d="M296.63,164.9l6.39-0.03v3.01h-6.98l-0.01-2.38C296.03,165.17,296.3,164.9,296.63,164.9z"/>
<path d="M296.63,158.55h6.73c0.83,0,1.51,0.67,1.51,1.51v1.48h-8.23c-0.33,0-0.6-0.27-0.6-0.6v-1.78
	C296.03,158.81,296.29,158.55,296.63,158.55z"/>
<path class="st0" d="M302.45,166.3"/>
<path class="st0" d="M302.57,160.06"/>
<path class="st0" d="M303.27,160.05c1.88,0,3.15,1.41,3.15,3.15c0,1.73-1.63,3.19-3.51,3.19"/>
<path d="M299.01,173.3v-7.8c0-0.33-0.27-0.6-0.6-0.6h-1.78c-0.33,0-0.6,0.27-0.6,0.6v7.8c0,0.33,0.27,0.6,0.6,0.6h1.78
	C298.74,173.9,299.01,173.63,299.01,173.3z"/>
<path d="M322.26,173.85l-5.93-13.01c-0.34-0.75-0.01-1.63,0.74-1.98l0,0c0.75-0.34,1.63-0.01,1.98,0.74l6.49,14.24L322.26,173.85z"
	/>
<polygon points="313.02,167.66 317.59,167.67 318.96,170.65 313.02,170.65 "/>
<path d="M335.18,158.51v14.69c0,0.33-0.27,0.6-0.6,0.6h-1.77c-0.33,0-0.6-0.27-0.6-0.6v-14.69H335.18z"/>
<path d="M340.87,161.48h-14.09c-0.33,0-0.6-0.27-0.6-0.6v-1.77c0-0.33,0.27-0.6,0.6-0.6h14.09c0.33,0,0.6,0.27,0.6,0.6v1.77
	C341.47,161.21,341.2,161.48,340.87,161.48z"/>
<path d="M354.07,158.54v14.69c0,0.33-0.27,0.6-0.6,0.6h-1.77c-0.33,0-0.6-0.27-0.6-0.6v-14.69H354.07z"/>
<path d="M359.76,161.51h-14.09c-0.33,0-0.6-0.27-0.6-0.6v-1.77c0-0.33,0.27-0.6,0.6-0.6h14.09c0.33,0,0.6,0.27,0.6,0.6v1.77
	C360.36,161.24,360.09,161.51,359.76,161.51z"/>
<path d="M362.62,170.76h11.43c0.33,0,0.6,0.27,0.6,0.6v1.78c0,0.33-0.27,0.6-0.6,0.6h-8.9c-1.4,0-2.54-1.14-2.54-2.54V170.76z"/>
<path d="M374.02,158.41h-10.78c-0.33,0-0.6,0.27-0.6,0.6v1.78c0,0.33,0.27,0.6,0.6,0.6h10.78c0.33,0,0.6-0.27,0.6-0.6v-1.78
	C374.62,158.68,374.35,158.41,374.02,158.41z"/>
<path d="M374,164.76h-10.78c-0.33,0-0.6,0.27-0.6,0.6v2.38H374c0.33,0,0.6-0.27,0.6-0.6v-1.78
	C374.6,165.03,374.33,164.76,374,164.76z"/>
<rect x="361.54" y="166.71" transform="matrix(-1.836970e-16 1 -1 -1.836970e-16 532.3163 -195.9161)" width="5.14" height="2.98"/>
<path d="M379.42,164.86l6.39-0.03v3.01h-6.98l-0.01-2.38C378.83,165.13,379.09,164.86,379.42,164.86z"/>
<path d="M379.42,158.51h6.73c0.83,0,1.51,0.67,1.51,1.51v1.48h-8.23c-0.33,0-0.6-0.27-0.6-0.6v-1.78
	C378.82,158.78,379.09,158.51,379.42,158.51z"/>
<polygon points="386.47,166.3 391.32,173.85 388.27,173.85 384.45,167.79 "/>
<path class="st0" d="M385.24,166.27"/>
<path class="st0" d="M385.37,160.02"/>
<path class="st0" d="M386.06,160.01c1.88,0,3.15,1.41,3.15,3.15c0,1.73-1.63,3.19-3.51,3.19"/>
<path d="M381.8,173.27v-7.8c0-0.33-0.27-0.6-0.6-0.6h-1.78c-0.33,0-0.6,0.27-0.6,0.6v7.8c0,0.33,0.27,0.6,0.6,0.6h1.78
	C381.53,173.87,381.8,173.6,381.8,173.27z"/>
<path d="M406.3,161.57h-7.65v-2.64c0-0.21,0.17-0.37,0.37-0.37h7.28c0.26,0,0.46,0.21,0.46,0.46v2.08
	C406.76,161.36,406.55,161.57,406.3,161.57z"/>
<path class="st0" d="M399,166.39c-1.28,0-2.33-1.42-2.33-3.15s1.05-3.15,2.33-3.15"/>
<path class="st0" d="M404.16,166.39c1.28,0,2.33,1.37,2.33,3.04c0,1.67-1.05,3.04-2.33,3.04"/>
<path d="M396.74,171h7.6v2.97h-7.6c-0.33,0-0.6-0.27-0.6-0.6v-1.77C396.14,171.27,396.41,171,396.74,171z"/>
<path d="M398.69,164.87h5.4c0.65,0,1.17,0.53,1.17,1.17v1.84h-6.25c-0.18,0-0.32-0.14-0.32-0.32V164.87z"/>
<rect x="420.13" y="165.42" transform="matrix(6.123234e-17 -1 1 6.123234e-17 257.2605 590.9871)" width="7.98" height="2.9"/>
<path d="M415.01,159.09h7.03c0.4,0,0.73,0.32,0.73,0.73V162h-8.01v-2.65C414.74,159.21,414.86,159.09,415.01,159.09z"/>
<path class="st1" d="M422.09,160.55c1.12,0,2.04,1.06,2.04,2.34"/>
<path d="M414.09,162.13v7.98h-2.9v-7.55c0-0.24,0.19-0.43,0.43-0.43H414.09z"/>
<path d="M422.02,173.89h-7.29c-0.4,0-0.73-0.32-0.73-0.73v-2.18h8.01V173.89z"/>
<path class="st1" d="M414.68,172.44c-1.12,0-2.04-1.06-2.04-2.34"/>
<path class="st1" d="M412.65,162.57c0-1.12,1.06-2.04,2.34-2.04"/>
<path class="st1" d="M424.12,170.7c0,0.95-0.98,1.74-2.17,1.74"/>
<path d="M429.17,173.95v-12.81h3.01v12.81c0,0.05-0.04,0.09-0.09,0.09h-2.82C429.21,174.04,429.17,174,429.17,173.95z"/>
<path d="M439.94,173.72v-13.36c0-0.83,0.67-1.5,1.5-1.5l0,0c0.83,0,1.5,0.67,1.5,1.5v11.54c0,1.18-0.96,2.14-2.14,2.14h-0.54
	C440.09,174.04,439.94,173.89,439.94,173.72z"/>
<path d="M437.98,172.9l-6.49-11.73l2.67-1.48l7.5,13.57c0.02,0.04,0.01,0.1-0.04,0.13l-0.67,0.37
	C439.9,174.34,438.57,173.96,437.98,172.9z"/>
<path class="st1" d="M430.62,161.24c0-0.59,0.6-1.07,1.33-1.07c0.73,0,1.33,0.49,1.33,1.07"/>
<path d="M271.23,167.6c0,0,1.67,1,2.03,4.04c0.06,0.52,0.24,1.01,0.5,1.47c0.85,1.5,2.54,3.62,6.47,2.19
	c0.26-0.1,0.42-0.37,0.38-0.65C280.28,172.31,279.59,168.45,271.23,167.6z"/>
<path d="M280.56,148.1c0,0-5.34,5.18,2.41,13.48c0.21,0.22,0.4,0.46,0.57,0.71c1.47,2.16,4.23,5.67-2.32,12.72
	c-0.04-1.62-0.21-3.87-5.03-7.58c-2.13-1.64-3.52-4.14-3.49-6.83C272.72,157.35,274.5,153.08,280.56,148.1z"/>
</svg>
